<svg xmlns="http://www.w3.org/2000/svg"  viewBox="0 0 48 48" width="48px" height="48px" baseProfile="basic"><path fill="#52cccc" d="M13.129,39l1.064-0.97l0.066-14.099L24,31.236l9.738-7.304v13.936l0.97,1.064L42.117,39	l1.065-0.97l0.068-24.632c0-2.86-2.073-4.357-4.121-4.357c-0.896,0-1.773,0.288-2.47,0.813L24,19.346L11.342,9.854	c-0.698-0.525-1.575-0.813-2.47-0.813c-2.048,0-4.121,1.497-4.121,4.357v24.469L5.787,39H13.129z" opacity=".15"/><path fill="#52cccc" d="M41,13.4v3.381l-5.956,4.45l-0.037-7.325l3.003-2.256c0.31-0.23,0.71-0.36,1.12-0.36	C39.99,11.29,41,11.84,41,13.4z" opacity=".8"/><path fill="#52cccc" d="M7,13.4v3.381l5.956,4.45l0.037-7.325L9.99,11.65c-0.31-0.23-0.71-0.36-1.12-0.36	C8.01,11.29,7,11.84,7,13.4z" opacity=".8"/><path fill="#52cccc" d="M6.496,37.962h-0.5v-2h0.5V37.962z M7.8,35.962H7.3v2h0.5V35.962z M9.104,35.962h-0.5v2	h0.5V35.962z M10.408,35.962h-0.5v2h0.5V35.962z M11.712,35.962h-0.5v2h0.5V35.962z M13.016,35.962h-0.5v2h0.5V35.962z" opacity=".8"/><path fill="#52cccc" d="M42.004,37.962h-0.5v-2h0.5V37.962z M40.7,35.962h-0.5v2h0.5V35.962z M39.396,35.962	h-0.5v2h0.5V35.962z M38.092,35.962h-0.5v2h0.5V35.962z M36.788,35.962h-0.5v2h0.5V35.962z M35.484,35.962h-0.5v2h0.5V35.962z" opacity=".8"/><path fill="#52cccc" d="M44.496,14.864l0.004-1.463c0-3.645-2.767-5.61-5.371-5.61c-1.165,0-2.309,0.378-3.222,1.064	l-5.663,4.246l-0.241,1.43L24,19.033l-6.231-4.672l-0.403-1.552l-5.275-3.955c-0.911-0.685-2.055-1.063-3.22-1.063	c-2.604,0-5.371,1.965-5.371,5.607v1.576l1,1.395v12.618l-1,1v8.366l1.737,1.896h6.894l2.312-2.109l0.06-12.466L24,32.798	l9.488-7.116v12.282l2.029,2.225l7.078,0.065l1.834-1.67l0.022-8.093c-0.344-0.35-0.681-0.695-0.997-1.019l0.036-12.839	L44.496,14.864z M42.932,37.919l-0.91,0.83l-7.201-0.066l-0.832-0.912V23.76l9.002-6.725L42.932,37.919z M13.944,37.919	l-0.911,0.831H5.897L5,37.771V17.027l9.01,6.732L13.944,37.919z M14.012,23.433l0,0.015L5,16.715v-3.316	c0-2.696,1.947-4.107,3.871-4.107c0.842,0,1.666,0.271,2.32,0.763l2.888,2.165l-0.055,11.222L14.012,23.433z M36.809,10.054	c0.654-0.492,1.479-0.763,2.32-0.763c1.924,0,3.871,1.411,3.871,4.106l-0.009,3.324l-9.002,6.727v-0.016l-0.012,0.009l-0.055-11.222	L36.809,10.054z M33.672,12.406l0.055,11.222L24,30.923l-9.727-7.294l0.055-11.223L24,19.658L33.672,12.406z"/></svg>